<svg width="1024" height="1024" xmlns="http://www.w3.org/2000/svg" class="icon">
 <defs>
  <style type="text/css"/>
 </defs>
 <g>
  <title>background</title>
  <rect fill="none" id="canvas_background" height="402" width="582" y="-1" x="-1"/>
 </g>
 <g>
  <title>Layer 1</title>
  <path transform="rotate(45 512,512) " id="svg_1" d="m0,512c0,69.1 13.5,136.2 40.3,199.3c25.7,61 62.7,115.7 109.7,162.7s101.8,83.9 162.7,109.7c63.1,26.7 130.2,40.3 199.3,40.3s136.2,-13.5 199.3,-40.3c61,-25.7 115.7,-62.7 162.7,-109.7s83.9,-101.8 109.7,-162.7c26.7,-63.1 40.3,-130.2 40.3,-199.3s-13.5,-136.2 -40.3,-199.3c-25.7,-61 -62.7,-115.7 -109.7,-162.7s-101.7,-84 -162.7,-109.7c-63.1,-26.8 -130.2,-40.3 -199.3,-40.3s-136.2,13.5 -199.3,40.3c-61,25.7 -115.7,62.7 -162.7,109.7s-84,101.7 -109.7,162.7c-26.8,63.1 -40.3,130.2 -40.3,199.3zm607.1,0l-206.6,-206.5c-14.1,-14.1 -14.1,-36.9 0,-50.9c14.1,-14.1 36.9,-14.1 50.9,0l232,231.9c14.1,14.1 14.1,36.9 0,50.9l-231.9,232c-7,7 -16.2,10.5 -25.5,10.5s-18.4,-3.5 -25.5,-10.5c-14.1,-14.1 -14.1,-36.9 0,-50.9l206.6,-206.5z"/>
 </g>
</svg>